<svg width="48" height="48" viewBox="0 0 48 48" fill="none" xmlns="http://www.w3.org/2000/svg">
<rect width="48" height="48" fill="white"/>
<path d="M15.5 16C15.5 14.6193 16.6193 13.5 18 13.5H36C37.3807 13.5 38.5 14.6193 38.5 16V26C38.5 27.3807 37.3807 28.5 36 28.5H18C16.6193 28.5 15.5 27.3807 15.5 26V16Z" stroke="#203562" stroke-width="3"/>
<path fill-rule="evenodd" clip-rule="evenodd" d="M14 27.7177C14 26.2167 15.2167 25 16.7177 25C18.2186 25 19.4353 26.2167 19.4353 27.7177V33L34.514 33V27.7177C34.514 26.2167 35.7307 25 37.2316 25C38.7326 25 39.9493 26.2167 39.9493 27.7177V36.2823C39.9493 37.7833 38.7326 39 37.2316 39C37.1065 39 36.9833 38.9915 36.8626 38.9752C36.7356 38.9915 36.6061 39 36.4747 39L17.4747 39C17.3432 39 17.2137 38.9915 17.0867 38.9751C16.9661 38.9915 16.8428 39 16.7177 39C15.2167 39 14 37.7833 14 36.2823V27.7177Z" fill="white"/>
<path d="M19.4353 33H17.9353V34.5H19.4353V33ZM34.514 33V34.5H36.014V33H34.514ZM36.8626 38.9752L37.0644 37.4888L36.8675 37.4621L36.6705 37.4875L36.8626 38.9752ZM36.4747 39V40.5V39ZM17.4747 39V37.5V39ZM17.0867 38.9751L17.2788 37.4875L17.0818 37.4621L16.8849 37.4888L17.0867 38.9751ZM16.7177 23.5C14.3883 23.5 12.5 25.3883 12.5 27.7177H15.5C15.5 27.0452 16.0452 26.5 16.7177 26.5V23.5ZM20.9353 27.7177C20.9353 25.3883 19.047 23.5 16.7177 23.5V26.5C17.3902 26.5 17.9353 27.0452 17.9353 27.7177H20.9353ZM20.9353 33V27.7177H17.9353V33H20.9353ZM19.4353 34.5L34.514 34.5V31.5L19.4353 31.5V34.5ZM33.014 27.7177V33H36.014V27.7177H33.014ZM37.2316 23.5C34.9023 23.5 33.014 25.3883 33.014 27.7177H36.014C36.014 27.0452 36.5591 26.5 37.2316 26.5V23.5ZM41.4493 27.7177C41.4493 25.3883 39.561 23.5 37.2316 23.5V26.5C37.9041 26.5 38.4493 27.0452 38.4493 27.7177H41.4493ZM41.4493 36.2823V27.7177H38.4493V36.2823H41.4493ZM37.2316 40.5C39.561 40.5 41.4493 38.6117 41.4493 36.2823H38.4493C38.4493 36.9548 37.9041 37.5 37.2316 37.5V40.5ZM36.6608 40.4615C36.8482 40.487 37.0388 40.5 37.2316 40.5V37.5C37.1742 37.5 37.1184 37.4961 37.0644 37.4888L36.6608 40.4615ZM36.6705 37.4875C36.6071 37.4957 36.5417 37.5 36.4747 37.5V40.5C36.6705 40.5 36.8641 40.4874 37.0546 40.4628L36.6705 37.4875ZM36.4747 37.5L17.4747 37.5V40.5L36.4747 40.5V37.5ZM17.4747 37.5C17.4076 37.5 17.3423 37.4957 17.2788 37.4875L16.8947 40.4628C17.0852 40.4874 17.2788 40.5 17.4747 40.5V37.5ZM16.7177 40.5C16.9105 40.5 17.1012 40.487 17.2886 40.4615L16.8849 37.4888C16.8309 37.4961 16.7752 37.5 16.7177 37.5V40.5ZM12.5 36.2823C12.5 38.6117 14.3883 40.5 16.7177 40.5V37.5C16.0452 37.5 15.5 36.9548 15.5 36.2823H12.5ZM12.5 27.7177V36.2823H15.5V27.7177H12.5Z" fill="#203562"/>
<path d="M18.4747 42.8691V40" stroke="#203562" stroke-width="3" stroke-linecap="round"/>
<path d="M35.4747 42.8691V40" stroke="#203562" stroke-width="3" stroke-linecap="round"/>
<path d="M8 43L8 14" stroke="#203562" stroke-width="3" stroke-linecap="round"/>
<path d="M4.22099 4.86034C4.2831 4.64683 4.47874 4.5 4.70109 4.5H11.6946C11.9242 4.5 12.1242 4.6563 12.1798 4.87903L13.9252 11.879C14.0039 12.1945 13.7652 12.5 13.4401 12.5H2.66473C2.33154 12.5 2.09156 12.1803 2.18463 11.8603L4.22099 4.86034Z" stroke="#00C1D4" stroke-width="3"/>
<ellipse cx="8" cy="44" rx="6" ry="1" fill="#203562"/>
</svg>
