<svg width="48" height="48" viewBox="0 0 48 48" fill="none" xmlns="http://www.w3.org/2000/svg">
<path d="M11.6633 30.8195C11.2874 31.5577 11.5812 32.4609 12.3195 32.8367C13.0577 33.2126 13.9609 32.9188 14.3367 32.1805L11.6633 30.8195ZM33.1823 32.1805C33.5582 32.9188 34.4613 33.2126 35.1996 32.8367C35.9379 32.4609 36.2317 31.5577 35.8558 30.8195L33.1823 32.1805ZM14.3367 32.1805C16.0443 28.8264 19.6124 26.5 23.7595 26.5V23.5C18.4724 23.5 13.8776 26.47 11.6633 30.8195L14.3367 32.1805ZM23.7595 26.5C27.9067 26.5 31.4748 28.8264 33.1823 32.1805L35.8558 30.8195C33.6415 26.47 29.0467 23.5 23.7595 23.5V26.5Z" fill="#203562"/>
<path d="M6.72236 25.2141C6.28832 25.9197 6.50848 26.8436 7.21411 27.2776C7.91973 27.7117 8.84361 27.4915 9.27764 26.7859L6.72236 25.2141ZM38.7224 26.7859C39.1564 27.4915 40.0803 27.7117 40.7859 27.2776C41.4915 26.8436 41.7117 25.9197 41.2776 25.2141L38.7224 26.7859ZM9.27764 26.7859C11.8768 22.5605 17.4166 19.5 24 19.5V16.5C16.5541 16.5 9.9553 19.9582 6.72236 25.2141L9.27764 26.7859ZM24 19.5C30.5834 19.5 36.1232 22.5605 38.7224 26.7859L41.2776 25.2141C38.0447 19.9582 31.4459 16.5 24 16.5V19.5Z" fill="#203562"/>
<path d="M2.7616 19.1536C2.29416 19.8376 2.46966 20.7709 3.15361 21.2384C3.83756 21.7058 4.77095 21.5303 5.2384 20.8464L2.7616 19.1536ZM42.7616 20.8464C43.2291 21.5303 44.1624 21.7058 44.8464 21.2384C45.5303 20.7709 45.7058 19.8376 45.2384 19.1536L42.7616 20.8464ZM5.2384 20.8464C8.53719 16.0198 15.5958 12.5 24 12.5V9.5C14.8675 9.5 6.75288 13.3138 2.7616 19.1536L5.2384 20.8464ZM24 12.5C32.4042 12.5 39.4628 16.0198 42.7616 20.8464L45.2384 19.1536C41.2471 13.3138 33.1325 9.5 24 9.5V12.5Z" fill="#203562"/>
<circle cx="24" cy="36" r="4.5" stroke="#00C1D4" stroke-width="3"/>
</svg>
