<svg width="48" height="48" viewBox="0 0 48 48" fill="none" xmlns="http://www.w3.org/2000/svg">
<g clip-path="url(#clip0_46_684)">
<rect width="48" height="48" fill="white"/>
<path d="M6.96454 13.1106C7.43076 12.4311 8.2019 12.025 9.02598 12.025H39.6889C40.5526 12.025 41.3552 12.4709 41.8115 13.2042L44.9226 18.2042C45.9588 19.8695 44.7613 22.025 42.8 22.025H5.59542C3.58355 22.025 2.39576 19.7696 3.53398 18.1106L6.96454 13.1106Z" stroke="#203562" stroke-width="3"/>
<mask id="path-2-inside-1_46_684" fill="white">
<path d="M10 40C7.79086 40 6 38.2091 6 36L6 23C6 21.8954 6.89543 21 8 21H12C13.1046 21 14 21.8954 14 23L14 36C14 38.2091 12.2091 40 10 40Z"/>
</mask>
<path d="M10 40C7.79086 40 6 38.2091 6 36L6 23C6 21.8954 6.89543 21 8 21H12C13.1046 21 14 21.8954 14 23L14 36C14 38.2091 12.2091 40 10 40Z" stroke="#203562" stroke-width="6" mask="url(#path-2-inside-1_46_684)"/>
<mask id="path-3-inside-2_46_684" fill="white">
<path d="M39 40C36.7909 40 35 38.2091 35 36V23C35 21.8954 35.8954 21 37 21H41C42.1046 21 43 21.8954 43 23V36C43 38.2091 41.2091 40 39 40Z"/>
</mask>
<path d="M39 40C36.7909 40 35 38.2091 35 36V23C35 21.8954 35.8954 21 37 21H41C42.1046 21 43 21.8954 43 23V36C43 38.2091 41.2091 40 39 40Z" stroke="#203562" stroke-width="6" mask="url(#path-3-inside-2_46_684)"/>
<path d="M37 15L37 12" stroke="#203562" stroke-width="1.5" stroke-linecap="round"/>
<path d="M35.2337 15.6C35.7018 15.6 36.1282 15.3308 36.3294 14.9082L37 13.5L37.6706 14.9082C37.8718 15.3308 38.2982 15.6 38.7663 15.6C38.9207 15.6 39.0737 15.6295 39.217 15.6868L40 16H34L34.783 15.6868C34.9263 15.6295 35.0793 15.6 35.2337 15.6Z" fill="#203562"/>
<path d="M37 11.9773C36.0084 11.9773 35.2045 11.1734 35.2045 10.1818V7.74999H38.7954V10.1818C38.7954 11.1734 37.9916 11.9773 37 11.9773Z" fill="white" stroke="#00C1D4" stroke-width="1.5"/>
<path d="M31 15L31 12" stroke="#203562" stroke-width="1.5" stroke-linecap="round"/>
<path d="M29.2337 15.6C29.7018 15.6 30.1282 15.3308 30.3294 14.9082L31 13.5L31.6706 14.9082C31.8718 15.3308 32.2982 15.6 32.7663 15.6C32.9207 15.6 33.0737 15.6295 33.217 15.6868L34 16H28L28.783 15.6868C28.9263 15.6295 29.0793 15.6 29.2337 15.6Z" fill="#203562"/>
<path d="M31 11.9773C30.0084 11.9773 29.2045 11.1734 29.2045 10.1818V7.74999H32.7954V10.1818C32.7954 11.1734 31.9916 11.9773 31 11.9773Z" fill="white" stroke="#00C1D4" stroke-width="1.5"/>
</g>
<defs>
<clipPath id="clip0_46_684">
<rect width="48" height="48" fill="white"/>
</clipPath>
</defs>
</svg>
