<svg width="48" height="48" viewBox="0 0 48 48" fill="none" xmlns="http://www.w3.org/2000/svg">
<path d="M26.5 36C26.5 37.4385 25.466 39.0341 23.1553 40.3545C20.887 41.6506 17.6533 42.5 14 42.5C10.3467 42.5 7.11298 41.6506 4.84471 40.3545C2.53401 39.0341 1.5 37.4385 1.5 36C1.5 34.5615 2.53401 32.9659 4.84471 31.6455C7.11298 30.3494 10.3467 29.5 14 29.5C17.6533 29.5 20.887 30.3494 23.1553 31.6455C25.466 32.9659 26.5 34.5615 26.5 36Z" stroke="#203562" stroke-width="3"/>
<path d="M24.5 13.6757C24.5 15.0585 24.0724 17.2115 23.2933 19.7579C22.525 22.2691 21.4526 25.0427 20.2481 27.6211C19.0393 30.2088 17.7228 32.5449 16.4809 34.209C15.8578 35.0439 15.2903 35.6595 14.8039 36.0521C14.2895 36.4674 14.032 36.5 14 36.5C13.7944 36.5 13.4333 36.4069 12.8983 36.0122C12.3708 35.6231 11.7784 35.0162 11.1445 34.1918C9.87811 32.5448 8.59465 30.2259 7.44092 27.644C6.29233 25.0736 5.29954 22.3039 4.59622 19.7922C3.88477 17.2516 3.5 15.0817 3.5 13.6757C3.5 8.09428 8.162 3.5 14 3.5C19.838 3.5 24.5 8.09428 24.5 13.6757Z" fill="white" stroke="#203562" stroke-width="3"/>
<circle cx="14" cy="15" r="4.5" stroke="#00C1D4" stroke-width="3"/>
</svg>
