<svg width="48" height="48" viewBox="0 0 48 48" fill="none" xmlns="http://www.w3.org/2000/svg">
<mask id="path-1-inside-1_17_53" fill="white">
<path fill-rule="evenodd" clip-rule="evenodd" d="M17.4536 7C16.6632 7 15.947 7.46547 15.626 8.18772L13.5897 12.7692H6C2.68629 12.7692 0 15.4555 0 18.7692V34.4615C0 37.7752 2.68629 40.4615 6 40.4615H39C42.3137 40.4615 45 37.7753 45 34.4615V18.7692C45 15.4555 42.3137 12.7692 39 12.7692H31.6667L29.919 8.27511C29.62 7.50636 28.8798 7 28.0549 7H17.4536Z"/>
</mask>
<path d="M15.626 8.18772L18.3674 9.40614V9.40614L15.626 8.18772ZM13.5897 12.7692V15.7692H15.5394L16.3312 13.9876L13.5897 12.7692ZM31.6667 12.7692L28.8707 13.8566L29.6145 15.7692H31.6667V12.7692ZM29.919 8.27511L32.715 7.18777V7.18777L29.919 8.27511ZM18.3674 9.40614C18.2069 9.76727 17.8488 10 17.4536 10V4C15.4777 4 13.687 5.16366 12.8845 6.96931L18.3674 9.40614ZM16.3312 13.9876L18.3674 9.40614L12.8845 6.96931L10.8483 11.5508L16.3312 13.9876ZM6 15.7692H13.5897V9.76923H6V15.7692ZM3 18.7692C3 17.1124 4.34314 15.7692 6 15.7692V9.76923C1.02944 9.76923 -3 13.7987 -3 18.7692H3ZM3 34.4615V18.7692H-3V34.4615H3ZM6 37.4615C4.34315 37.4615 3 36.1184 3 34.4615H-3C-3 39.4321 1.02944 43.4615 6 43.4615V37.4615ZM39 37.4615H6V43.4615H39V37.4615ZM42 34.4615C42 36.1184 40.6569 37.4615 39 37.4615V43.4615C43.9706 43.4615 48 39.4321 48 34.4615H42ZM42 18.7692V34.4615H48V18.7692H42ZM39 15.7692C40.6569 15.7692 42 17.1124 42 18.7692H48C48 13.7987 43.9706 9.76923 39 9.76923V15.7692ZM31.6667 15.7692H39V9.76923H31.6667V15.7692ZM27.1229 9.36245L28.8707 13.8566L34.4627 11.6819L32.715 7.18777L27.1229 9.36245ZM28.0549 10C27.6425 10 27.2724 9.74682 27.1229 9.36245L32.715 7.18777C31.9676 5.26591 30.117 4 28.0549 4V10ZM17.4536 10H28.0549V4H17.4536V10Z" fill="#203562" mask="url(#path-1-inside-1_17_53)"/>
<circle cx="22.5" cy="26.7308" r="7" stroke="#00C1D4" stroke-width="3"/>
<line x1="32.75" y1="18.4808" x2="37.25" y2="18.4808" stroke="#203562" stroke-width="1.5" stroke-linecap="round"/>
</svg>
